<svg width="55" height="60" viewBox="0 0 55 60" fill="none" xmlns="http://www.w3.org/2000/svg">
<g clip-path="url(#clip0_81_2)">
<path d="M51.8496 33.9807C44.7433 33.8944 39.0051 28.1217 39.0051 20.9952C31.8785 20.9952 26.1067 15.2581 26.0194 8.15288C23.2508 7.73242 20.4202 8.18335 17.9228 9.45489L10.9019 13.0318C8.3744 14.3199 6.31976 16.3752 5.03259 18.9031L1.46776 25.8986C0.17676 28.4328 -0.279012 31.3107 0.165735 34.1199L1.3926 41.8659C1.83691 44.6723 3.158 47.2661 5.16665 49.2758L10.7292 54.8372C12.7315 56.8401 15.3165 58.1577 18.1138 58.601L25.9046 59.835C28.6986 60.2778 31.5616 59.8238 34.0834 58.5391L41.1044 54.9632C43.6316 53.6748 45.6862 51.6196 46.9736 49.0919L50.5385 42.0964C51.8141 39.594 52.266 36.7564 51.8496 33.9807ZM17.8751 45.3738C16.0805 45.3738 14.6251 43.9184 14.6251 42.1239C14.6251 40.3293 16.0805 38.8739 17.8751 38.8739C19.6697 38.8739 21.1251 40.3293 21.1251 42.1239C21.1251 43.9184 19.6697 45.3738 17.8751 45.3738ZM21.1251 29.1241C19.3305 29.1241 17.8751 27.6688 17.8751 25.8742C17.8751 24.0796 19.3305 22.6242 21.1251 22.6242C22.9197 22.6242 24.3751 24.0796 24.3751 25.8742C24.3751 27.6688 22.9197 29.1241 21.1251 29.1241ZM37.375 42.1239C35.5804 42.1239 34.125 40.6685 34.125 38.8739C34.125 37.0794 35.5804 35.624 37.375 35.624C39.1696 35.624 40.625 37.0794 40.625 38.8739C40.625 40.6685 39.1696 42.1239 37.375 42.1239Z" fill="url(#paint0_linear_81_2)"/>
<path d="M52 16C53.6569 16 55 14.6569 55 13C55 11.3431 53.6569 10 52 10C50.3431 10 49 11.3431 49 13C49 14.6569 50.3431 16 52 16Z" fill="url(#paint1_linear_81_2)"/>
<path d="M49 6C50.6569 6 52 4.65685 52 3C52 1.34315 50.6569 0 49 0C47.3431 0 46 1.34315 46 3C46 4.65685 47.3431 6 49 6Z" fill="url(#paint2_linear_81_2)"/>
<path d="M38 16C39.6569 16 41 14.6569 41 13C41 11.3431 39.6569 10 38 10C36.3431 10 35 11.3431 35 13C35 14.6569 36.3431 16 38 16Z" fill="url(#paint3_linear_81_2)"/>
</g>
<defs>
<linearGradient id="paint0_linear_81_2" x1="26" y1="8" x2="26" y2="60" gradientUnits="userSpaceOnUse">
<stop stop-color="#AD40CE"/>
<stop offset="0.495" stop-color="#6C3EE2"/>
<stop offset="1" stop-color="#B93EC0"/>
</linearGradient>
<linearGradient id="paint1_linear_81_2" x1="52" y1="10" x2="52" y2="16" gradientUnits="userSpaceOnUse">
<stop stop-color="#AD40CE"/>
<stop offset="0.495" stop-color="#6C3EE2"/>
<stop offset="1" stop-color="#B93EC0"/>
</linearGradient>
<linearGradient id="paint2_linear_81_2" x1="49" y1="0" x2="49" y2="6" gradientUnits="userSpaceOnUse">
<stop stop-color="#AD40CE"/>
<stop offset="0.495" stop-color="#6C3EE2"/>
<stop offset="1" stop-color="#B93EC0"/>
</linearGradient>
<linearGradient id="paint3_linear_81_2" x1="38" y1="10" x2="38" y2="16" gradientUnits="userSpaceOnUse">
<stop stop-color="#AD40CE"/>
<stop offset="0.495" stop-color="#6C3EE2"/>
<stop offset="1" stop-color="#B93EC0"/>
</linearGradient>
<clipPath id="clip0_81_2">
<rect width="55" height="60" fill="white"/>
</clipPath>
</defs>
</svg>
